{
  "accessors": [
    {
      "bufferView": 2,
      "componentType": 5126,
      "count": 21374,
      "max": [
        10.694037437438965,
        10.340782165527344,
        2.5738587379455566
      ],
      "min": [
        -10.237455368041992,
        -9.702914237976074,
        0.23004087805747986
      ],
      "type": "VEC3"
    },
    {
      "bufferView": 2,
      "byteOffset": 256488,
      "componentType": 5126,
      "count": 21374,
      "type": "VEC3"
    },
    {
      "bufferView": 1,
      "componentType": 5126,
      "count": 21374,
      "type": "VEC2"
    },
    {
      "bufferView": 1,
      "byteOffset": 170992,
      "componentType": 5126,
      "count": 21374,
      "type": "VEC2"
    },
    {
      "bufferView": 0,
      "componentType": 5125,
      "count": 72057,
      "type": "SCALAR"
    },
    {
      "bufferView": 2,
      "byteOffset": 512976,
      "componentType": 5126,
      "count": 15563,
      "max": [
        10.117778778076172,
        10.416537284851074,
        2.511331558227539
      ],
      "min": [
        -10.093894958496094,
        -9.690196990966797,
        0.25055786967277527
      ],
      "type": "VEC3"
    },
    {
      "bufferView": 2,
      "byteOffset": 699732,
      "componentType": 5126,
      "count": 15563,
      "type": "VEC3"
    },
    {
      "bufferView": 1,
      "byteOffset": 341984,
      "componentType": 5126,
      "count": 15563,
      "type": "VEC2"
    },
    {
      "bufferView": 1,
      "byteOffset": 466488,
      "componentType": 5126,
      "count": 15563,
      "type": "VEC2"
    },
    {
      "bufferView": 0,
      "byteOffset": 288228,
      "componentType": 5125,
      "count": 67041,
      "type": "SCALAR"
    }
  ],
  "asset": {
    "generator": "fab-model-conversion",
    "version": "2.0"
  },
  "bufferViews": [
    {
      "buffer": 0,
      "byteLength": 556392,
      "target": 34963
    },
    {
      "buffer": 0,
      "byteLength": 590992,
      "byteOffset": 556392,
      "byteStride": 8,
      "target": 34962
    },
    {
      "buffer": 0,
      "byteLength": 886488,
      "byteOffset": 1147384,
      "byteStride": 12,
      "target": 34962
    }
  ],
  "buffers": [
    {
      "byteLength": 2033872,
      "uri": "scene.bin"
    }
  ],
  "extensionsUsed": [
    "KHR_materials_unlit"
  ],
  "images": [
    {
      "uri": "textures/pieskovisko_u1_v1_baseColor.jpeg"
    },
    {
      "uri": "textures/pieskovisko_u2_v1_baseColor.jpeg"
    }
  ],
  "materials": [
    {
      "doubleSided": true,
      "extensions": {
        "KHR_materials_unlit": {}
      },
      "name": "pieskovisko_u1_v1",
      "pbrMetallicRoughness": {
        "baseColorTexture": {
          "index": 0
        },
        "metallicFactor": 0.0
      }
    },
    {
      "doubleSided": true,
      "extensions": {
        "KHR_materials_unlit": {}
      },
      "name": "pieskovisko_u2_v1",
      "pbrMetallicRoughness": {
        "baseColorTexture": {
          "index": 1
        },
        "metallicFactor": 0.0
      }
    }
  ],
  "meshes": [
    {
      "name": "pieskovisko_pieskovisko_u1_v1_0",
      "primitives": [
        {
          "attributes": {
            "NORMAL": 1,
            "POSITION": 0,
            "TEXCOORD_0": 2,
            "TEXCOORD_1": 3
          },
          "indices": 4,
          "material": 0,
          "mode": 4
        }
      ]
    },
    {
      "name": "pieskovisko_pieskovisko_u2_v1_0",
      "primitives": [
        {
          "attributes": {
            "NORMAL": 6,
            "POSITION": 5,
            "TEXCOORD_0": 7,
            "TEXCOORD_1": 8
          },
          "indices": 9,
          "material": 1,
          "mode": 4
        }
      ]
    }
  ],
  "nodes": [
    {
      "children": [
        1
      ],
      "matrix": [
        1.0,
        0.0,
        0.0,
        0.0,
        0.0,
        2.220446049250313e-16,
        -1.0,
        0.0,
        0.0,
        1.0,
        2.220446049250313e-16,
        0.0,
        0.0,
        0.0,
        0.0,
        1.0
      ],
      "name": "Sketchfab_model"
    },
    {
      "children": [
        2
      ],
      "matrix": [
        1.0,
        0.0,
        0.0,
        0.0,
        0.0,
        0.0,
        1.0,
        0.0,
        0.0,
        -1.0,
        0.0,
        0.0,
        0.0,
        0.0,
        0.0,
        1.0
      ],
      "name": "1211b328526e4eed8e5fed6a5e7cacb3.fbx"
    },
    {
      "children": [
        3
      ],
      "name": "RootNode"
    },
    {
      "children": [
        4,
        5
      ],
      "matrix": [
        1.0,
        0.0,
        0.0,
        0.0,
        0.0,
        2.220446049250313e-16,
        -1.0,
        0.0,
        0.0,
        1.0,
        2.220446049250313e-16,
        0.0,
        0.0,
        0.0,
        0.0,
        1.0
      ],
      "name": "pieskovisko"
    },
    {
      "mesh": 0,
      "name": "pieskovisko_pieskovisko_u1_v1_0"
    },
    {
      "mesh": 1,
      "name": "pieskovisko_pieskovisko_u2_v1_0"
    }
  ],
  "samplers": [
    {
      "magFilter": 9729,
      "minFilter": 9987,
      "wrapS": 10497,
      "wrapT": 10497
    }
  ],
  "scene": 0,
  "scenes": [
    {
      "name": "Sketchfab_Scene",
      "nodes": [
        0
      ]
    }
  ],
  "textures": [
    {
      "sampler": 0,
      "source": 0
    },
    {
      "sampler": 0,
      "source": 1
    }
  ]
}
