{
  "accessors": [
    {
      "bufferView": 2,
      "componentType": 5126,
      "count": 39118,
      "max": [
        3.2349936962127686,
        6.63981294631958,
        0.9448513984680176
      ],
      "min": [
        -1.2580807209014893,
        -2.93696928024292,
        -5.393902778625488
      ],
      "type": "VEC3"
    },
    {
      "bufferView": 2,
      "byteOffset": 469416,
      "componentType": 5126,
      "count": 39118,
      "type": "VEC3"
    },
    {
      "bufferView": 3,
      "componentType": 5126,
      "count": 39118,
      "type": "VEC4"
    },
    {
      "bufferView": 1,
      "componentType": 5126,
      "count": 39118,
      "type": "VEC2"
    },
    {
      "bufferView": 1,
      "byteOffset": 312944,
      "componentType": 5126,
      "count": 39118,
      "type": "VEC2"
    },
    {
      "bufferView": 1,
      "byteOffset": 625888,
      "componentType": 5126,
      "count": 39118,
      "type": "VEC2"
    },
    {
      "bufferView": 0,
      "componentType": 5125,
      "count": 205596,
      "type": "SCALAR"
    }
  ],
  "asset": {
    "generator": "fab-model-conversion",
    "version": "2.0"
  },
  "bufferViews": [
    {
      "buffer": 0,
      "byteLength": 822384,
      "target": 34963
    },
    {
      "buffer": 0,
      "byteLength": 938832,
      "byteOffset": 822384,
      "byteStride": 8,
      "target": 34962
    },
    {
      "buffer": 0,
      "byteLength": 938832,
      "byteOffset": 1761216,
      "byteStride": 12,
      "target": 34962
    },
    {
      "buffer": 0,
      "byteLength": 625888,
      "byteOffset": 2700048,
      "byteStride": 16,
      "target": 34962
    }
  ],
  "buffers": [
    {
      "byteLength": 3325936,
      "uri": "scene.bin"
    }
  ],
  "images": [
    {
      "uri": "textures/Slide_baseColor.png"
    },
    {
      "uri": "textures/Slide_metallicRoughness.png"
    },
    {
      "uri": "textures/Slide_normal.png"
    }
  ],
  "materials": [
    {
      "doubleSided": true,
      "name": "Slide",
      "normalTexture": {
        "index": 2,
        "texCoord": 1
      },
      "pbrMetallicRoughness": {
        "baseColorTexture": {
          "index": 0
        },
        "metallicRoughnessTexture": {
          "index": 1
        }
      }
    }
  ],
  "meshes": [
    {
      "name": "Playground Slide_Slide_0",
      "primitives": [
        {
          "attributes": {
            "NORMAL": 1,
            "POSITION": 0,
            "TANGENT": 2,
            "TEXCOORD_0": 3,
            "TEXCOORD_1": 4,
            "TEXCOORD_2": 5
          },
          "indices": 6,
          "material": 0,
          "mode": 4
        }
      ]
    }
  ],
  "nodes": [
    {
      "children": [
        1
      ],
      "matrix": [
        1.0,
        0.0,
        0.0,
        0.0,
        0.0,
        2.220446049250313e-16,
        -1.0,
        0.0,
        0.0,
        1.0,
        2.220446049250313e-16,
        0.0,
        0.0,
        0.0,
        0.0,
        1.0
      ],
      "name": "Sketchfab_model"
    },
    {
      "children": [
        2
      ],
      "matrix": [
        0.009999999776482582,
        0.0,
        0.0,
        0.0,
        0.0,
        0.0,
        0.009999999776482582,
        0.0,
        0.0,
        -0.009999999776482582,
        0.0,
        0.0,
        0.0,
        0.0,
        0.0,
        1.0
      ],
      "name": "89b299c342b44424b9d68ea48f5c44c2.fbx"
    },
    {
      "children": [
        3
      ],
      "name": "RootNode"
    },
    {
      "children": [
        4
      ],
      "matrix": [
        56.60690689086914,
        0.0,
        0.0,
        0.0,
        0.0,
        -1.629206793918314e-05,
        -99.99999999999868,
        0.0,
        0.0,
        99.99999999999868,
        -1.629206793918314e-05,
        0.0,
        0.0,
        536.0675048828125,
        -194.34439086914063,
        1.0
      ],
      "name": "Playground Slide"
    },
    {
      "mesh": 0,
      "name": "Playground Slide_Slide_0"
    }
  ],
  "samplers": [
    {
      "magFilter": 9729,
      "minFilter": 9987,
      "wrapS": 10497,
      "wrapT": 10497
    }
  ],
  "scene": 0,
  "scenes": [
    {
      "name": "Sketchfab_Scene",
      "nodes": [
        0
      ]
    }
  ],
  "textures": [
    {
      "sampler": 0,
      "source": 0
    },
    {
      "sampler": 0,
      "source": 1
    },
    {
      "sampler": 0,
      "source": 2
    }
  ]
}
