{
  "accessors": [
    {
      "bufferView": 2,
      "componentType": 5126,
      "count": 65533,
      "max": [
        21.94489097595215,
        5.799262523651123,
        19.492095947265625
      ],
      "min": [
        -23.361284255981445,
        -8.929462432861328,
        -20.624740600585938
      ],
      "type": "VEC3"
    },
    {
      "bufferView": 2,
      "byteOffset": 786396,
      "componentType": 5126,
      "count": 65533,
      "type": "VEC3"
    },
    {
      "bufferView": 1,
      "componentType": 5126,
      "count": 65533,
      "type": "VEC2"
    },
    {
      "bufferView": 1,
      "byteOffset": 524264,
      "componentType": 5126,
      "count": 65533,
      "type": "VEC2"
    },
    {
      "bufferView": 0,
      "componentType": 5125,
      "count": 336843,
      "type": "SCALAR"
    },
    {
      "bufferView": 2,
      "byteOffset": 1572792,
      "componentType": 5126,
      "count": 48430,
      "max": [
        21.571937561035156,
        7.467716693878174,
        11.367071151733398
      ],
      "min": [
        -23.445180892944336,
        -6.0818305015563965,
        -20.682693481445313
      ],
      "type": "VEC3"
    },
    {
      "bufferView": 2,
      "byteOffset": 2153952,
      "componentType": 5126,
      "count": 48430,
      "type": "VEC3"
    },
    {
      "bufferView": 1,
      "byteOffset": 1048528,
      "componentType": 5126,
      "count": 48430,
      "type": "VEC2"
    },
    {
      "bufferView": 1,
      "byteOffset": 1435968,
      "componentType": 5126,
      "count": 48430,
      "type": "VEC2"
    },
    {
      "bufferView": 0,
      "byteOffset": 1347372,
      "componentType": 5125,
      "count": 227466,
      "type": "SCALAR"
    },
    {
      "bufferView": 2,
      "byteOffset": 2735112,
      "componentType": 5126,
      "count": 65532,
      "max": [
        19.65789031982422,
        5.936561107635498,
        20.726613998413086
      ],
      "min": [
        -21.32146453857422,
        -8.930492401123047,
        -17.5687255859375
      ],
      "type": "VEC3"
    },
    {
      "bufferView": 2,
      "byteOffset": 3521496,
      "componentType": 5126,
      "count": 65532,
      "type": "VEC3"
    },
    {
      "bufferView": 1,
      "byteOffset": 1823408,
      "componentType": 5126,
      "count": 65532,
      "type": "VEC2"
    },
    {
      "bufferView": 1,
      "byteOffset": 2347664,
      "componentType": 5126,
      "count": 65532,
      "type": "VEC2"
    },
    {
      "bufferView": 0,
      "byteOffset": 2257236,
      "componentType": 5125,
      "count": 331344,
      "type": "SCALAR"
    },
    {
      "bufferView": 2,
      "byteOffset": 4307880,
      "componentType": 5126,
      "count": 44066,
      "max": [
        21.053876876831055,
        7.448318958282471,
        17.294239044189453
      ],
      "min": [
        -20.703750610351563,
        -7.390956878662109,
        -17.363502502441406
      ],
      "type": "VEC3"
    },
    {
      "bufferView": 2,
      "byteOffset": 4836672,
      "componentType": 5126,
      "count": 44066,
      "type": "VEC3"
    },
    {
      "bufferView": 1,
      "byteOffset": 2871920,
      "componentType": 5126,
      "count": 44066,
      "type": "VEC2"
    },
    {
      "bufferView": 1,
      "byteOffset": 3224448,
      "componentType": 5126,
      "count": 44066,
      "type": "VEC2"
    },
    {
      "bufferView": 0,
      "byteOffset": 3582612,
      "componentType": 5125,
      "count": 205995,
      "type": "SCALAR"
    },
    {
      "bufferView": 2,
      "byteOffset": 5365464,
      "componentType": 5126,
      "count": 65532,
      "max": [
        21.052207946777344,
        7.959714412689209,
        20.216827392578125
      ],
      "min": [
        -22.96409034729004,
        -8.95367431640625,
        -17.616546630859375
      ],
      "type": "VEC3"
    },
    {
      "bufferView": 2,
      "byteOffset": 6151848,
      "componentType": 5126,
      "count": 65532,
      "type": "VEC3"
    },
    {
      "bufferView": 1,
      "byteOffset": 3576976,
      "componentType": 5126,
      "count": 65532,
      "type": "VEC2"
    },
    {
      "bufferView": 1,
      "byteOffset": 4101232,
      "componentType": 5126,
      "count": 65532,
      "type": "VEC2"
    },
    {
      "bufferView": 0,
      "byteOffset": 4406592,
      "componentType": 5125,
      "count": 333564,
      "type": "SCALAR"
    },
    {
      "bufferView": 2,
      "byteOffset": 6938232,
      "componentType": 5126,
      "count": 42297,
      "max": [
        21.05881118774414,
        6.403445720672607,
        19.50252342224121
      ],
      "min": [
        -20.2137393951416,
        -6.696181297302246,
        -17.614913940429688
      ],
      "type": "VEC3"
    },
    {
      "bufferView": 2,
      "byteOffset": 7445796,
      "componentType": 5126,
      "count": 42297,
      "type": "VEC3"
    },
    {
      "bufferView": 1,
      "byteOffset": 4625488,
      "componentType": 5126,
      "count": 42297,
      "type": "VEC2"
    },
    {
      "bufferView": 1,
      "byteOffset": 4963864,
      "componentType": 5126,
      "count": 42297,
      "type": "VEC2"
    },
    {
      "bufferView": 0,
      "byteOffset": 5740848,
      "componentType": 5125,
      "count": 200655,
      "type": "SCALAR"
    },
    {
      "bufferView": 2,
      "byteOffset": 7953360,
      "componentType": 5126,
      "count": 65532,
      "max": [
        20.92531394958496,
        7.934016704559326,
        20.579673767089844
      ],
      "min": [
        -22.629247665405273,
        -8.97252082824707,
        -17.987747192382813
      ],
      "type": "VEC3"
    },
    {
      "bufferView": 2,
      "byteOffset": 8739744,
      "componentType": 5126,
      "count": 65532,
      "type": "VEC3"
    },
    {
      "bufferView": 1,
      "byteOffset": 5302240,
      "componentType": 5126,
      "count": 65532,
      "type": "VEC2"
    },
    {
      "bufferView": 1,
      "byteOffset": 5826496,
      "componentType": 5126,
      "count": 65532,
      "type": "VEC2"
    },
    {
      "bufferView": 0,
      "byteOffset": 6543468,
      "componentType": 5125,
      "count": 330972,
      "type": "SCALAR"
    },
    {
      "bufferView": 2,
      "byteOffset": 9526128,
      "componentType": 5126,
      "count": 44595,
      "max": [
        23.718271255493164,
        7.848050594329834,
        15.377164840698242
      ],
      "min": [
        -22.343666076660156,
        -7.022891521453857,
        -17.874088287353516
      ],
      "type": "VEC3"
    },
    {
      "bufferView": 2,
      "byteOffset": 10061268,
      "componentType": 5126,
      "count": 44595,
      "type": "VEC3"
    },
    {
      "bufferView": 1,
      "byteOffset": 6350752,
      "componentType": 5126,
      "count": 44595,
      "type": "VEC2"
    },
    {
      "bufferView": 1,
      "byteOffset": 6707512,
      "componentType": 5126,
      "count": 44595,
      "type": "VEC2"
    },
    {
      "bufferView": 0,
      "byteOffset": 7867356,
      "componentType": 5125,
      "count": 213018,
      "type": "SCALAR"
    }
  ],
  "asset": {
    "generator": "fab-model-conversion",
    "version": "2.0"
  },
  "bufferViews": [
    {
      "buffer": 0,
      "byteLength": 8719428,
      "target": 34963
    },
    {
      "buffer": 0,
      "byteLength": 7064272,
      "byteOffset": 8719428,
      "byteStride": 8,
      "target": 34962
    },
    {
      "buffer": 0,
      "byteLength": 10596408,
      "byteOffset": 15783700,
      "byteStride": 12,
      "target": 34962
    }
  ],
  "buffers": [
    {
      "byteLength": 26380108,
      "uri": "scene.bin"
    }
  ],
  "extensionsUsed": [
    "KHR_materials_unlit"
  ],
  "images": [
    {
      "uri": "textures/material0_baseColor.jpeg"
    },
    {
      "uri": "textures/material1_baseColor.jpeg"
    },
    {
      "uri": "textures/material3_baseColor.jpeg"
    },
    {
      "uri": "textures/material2_baseColor.jpeg"
    }
  ],
  "materials": [
    {
      "doubleSided": true,
      "extensions": {
        "KHR_materials_unlit": {}
      },
      "name": "material0",
      "pbrMetallicRoughness": {
        "baseColorTexture": {
          "index": 0
        },
        "metallicFactor": 0.0
      }
    },
    {
      "doubleSided": true,
      "extensions": {
        "KHR_materials_unlit": {}
      },
      "name": "material1",
      "pbrMetallicRoughness": {
        "baseColorTexture": {
          "index": 1
        },
        "metallicFactor": 0.0
      }
    },
    {
      "doubleSided": true,
      "extensions": {
        "KHR_materials_unlit": {}
      },
      "name": "material3",
      "pbrMetallicRoughness": {
        "baseColorTexture": {
          "index": 2
        },
        "metallicFactor": 0.0
      }
    },
    {
      "doubleSided": true,
      "extensions": {
        "KHR_materials_unlit": {}
      },
      "name": "material2",
      "pbrMetallicRoughness": {
        "baseColorTexture": {
          "index": 3
        },
        "metallicFactor": 0.0
      }
    }
  ],
  "meshes": [
    {
      "name": "Model_material0_0",
      "primitives": [
        {
          "attributes": {
            "NORMAL": 1,
            "POSITION": 0,
            "TEXCOORD_0": 2,
            "TEXCOORD_1": 3
          },
          "indices": 4,
          "material": 0,
          "mode": 4
        }
      ]
    },
    {
      "name": "Model_material0_0",
      "primitives": [
        {
          "attributes": {
            "NORMAL": 6,
            "POSITION": 5,
            "TEXCOORD_0": 7,
            "TEXCOORD_1": 8
          },
          "indices": 9,
          "material": 0,
          "mode": 4
        }
      ]
    },
    {
      "name": "Model_material1_0",
      "primitives": [
        {
          "attributes": {
            "NORMAL": 11,
            "POSITION": 10,
            "TEXCOORD_0": 12,
            "TEXCOORD_1": 13
          },
          "indices": 14,
          "material": 1,
          "mode": 4
        }
      ]
    },
    {
      "name": "Model_material1_0",
      "primitives": [
        {
          "attributes": {
            "NORMAL": 16,
            "POSITION": 15,
            "TEXCOORD_0": 17,
            "TEXCOORD_1": 18
          },
          "indices": 19,
          "material": 1,
          "mode": 4
        }
      ]
    },
    {
      "name": "Model_material3_0",
      "primitives": [
        {
          "attributes": {
            "NORMAL": 21,
            "POSITION": 20,
            "TEXCOORD_0": 22,
            "TEXCOORD_1": 23
          },
          "indices": 24,
          "material": 2,
          "mode": 4
        }
      ]
    },
    {
      "name": "Model_material3_0",
      "primitives": [
        {
          "attributes": {
            "NORMAL": 26,
            "POSITION": 25,
            "TEXCOORD_0": 27,
            "TEXCOORD_1": 28
          },
          "indices": 29,
          "material": 2,
          "mode": 4
        }
      ]
    },
    {
      "name": "Model_material2_0",
      "primitives": [
        {
          "attributes": {
            "NORMAL": 31,
            "POSITION": 30,
            "TEXCOORD_0": 32,
            "TEXCOORD_1": 33
          },
          "indices": 34,
          "material": 3,
          "mode": 4
        }
      ]
    },
    {
      "name": "Model_material2_0",
      "primitives": [
        {
          "attributes": {
            "NORMAL": 36,
            "POSITION": 35,
            "TEXCOORD_0": 37,
            "TEXCOORD_1": 38
          },
          "indices": 39,
          "material": 3,
          "mode": 4
        }
      ]
    }
  ],
  "nodes": [
    {
      "children": [
        1
      ],
      "matrix": [
        1.0,
        0.0,
        0.0,
        0.0,
        0.0,
        2.220446049250313e-16,
        -1.0,
        0.0,
        0.0,
        1.0,
        2.220446049250313e-16,
        0.0,
        0.0,
        0.0,
        0.0,
        1.0
      ],
      "name": "Sketchfab_model"
    },
    {
      "children": [
        2
      ],
      "matrix": [
        0.009999999776482582,
        0.0,
        0.0,
        0.0,
        0.0,
        0.0,
        0.009999999776482582,
        0.0,
        0.0,
        -0.009999999776482582,
        0.0,
        0.0,
        0.0,
        0.0,
        0.0,
        1.0
      ],
      "name": "dry-fbed.fbx"
    },
    {
      "children": [
        3
      ],
      "name": "RootNode"
    },
    {
      "children": [
        4,
        5,
        6,
        7,
        8,
        9,
        10,
        11
      ],
      "matrix": [
        100.0,
        0.0,
        0.0,
        0.0,
        0.0,
        -1.629206793918314e-05,
        -99.99999999999868,
        0.0,
        0.0,
        99.99999999999868,
        -1.629206793918314e-05,
        0.0,
        0.0,
        0.0,
        0.0,
        1.0
      ],
      "name": "Model"
    },
    {
      "mesh": 0,
      "name": "Model_material0_0"
    },
    {
      "mesh": 1,
      "name": "Model_material0_0"
    },
    {
      "mesh": 2,
      "name": "Model_material1_0"
    },
    {
      "mesh": 3,
      "name": "Model_material1_0"
    },
    {
      "mesh": 4,
      "name": "Model_material3_0"
    },
    {
      "mesh": 5,
      "name": "Model_material3_0"
    },
    {
      "mesh": 6,
      "name": "Model_material2_0"
    },
    {
      "mesh": 7,
      "name": "Model_material2_0"
    }
  ],
  "samplers": [
    {
      "magFilter": 9729,
      "minFilter": 9987,
      "wrapS": 10497,
      "wrapT": 10497
    }
  ],
  "scene": 0,
  "scenes": [
    {
      "name": "Sketchfab_Scene",
      "nodes": [
        0
      ]
    }
  ],
  "textures": [
    {
      "sampler": 0,
      "source": 0
    },
    {
      "sampler": 0,
      "source": 1
    },
    {
      "sampler": 0,
      "source": 2
    },
    {
      "sampler": 0,
      "source": 3
    }
  ]
}
