{
  "accessors": [
    {
      "bufferView": 2,
      "componentType": 5126,
      "count": 3363,
      "max": [
        3.0991148948669434,
        -0.3823910057544708,
        2.4456660747528076
      ],
      "min": [
        -2.443690061569214,
        -5.549746990203857,
        -2.3050661087036133
      ],
      "type": "VEC3"
    },
    {
      "bufferView": 2,
      "byteOffset": 40356,
      "componentType": 5126,
      "count": 3363,
      "type": "VEC3"
    },
    {
      "bufferView": 1,
      "componentType": 5126,
      "count": 3363,
      "type": "VEC2"
    },
    {
      "bufferView": 0,
      "componentType": 5125,
      "count": 3363,
      "type": "SCALAR"
    },
    {
      "bufferView": 2,
      "byteOffset": 80712,
      "componentType": 5126,
      "count": 65532,
      "max": [
        3.236830949783325,
        0.32610899209976196,
        2.45039701461792
      ],
      "min": [
        -2.4631359577178955,
        -5.146402835845947,
        -2.3171579837799072
      ],
      "type": "VEC3"
    },
    {
      "bufferView": 2,
      "byteOffset": 867096,
      "componentType": 5126,
      "count": 65532,
      "type": "VEC3"
    },
    {
      "bufferView": 1,
      "byteOffset": 26904,
      "componentType": 5126,
      "count": 65532,
      "type": "VEC2"
    },
    {
      "bufferView": 0,
      "byteOffset": 13452,
      "componentType": 5125,
      "count": 253284,
      "type": "SCALAR"
    },
    {
      "bufferView": 2,
      "byteOffset": 1653480,
      "componentType": 5126,
      "count": 65534,
      "max": [
        3.0231900215148926,
        -2.4429409503936768,
        1.2702560424804688
      ],
      "min": [
        2.474658966064453,
        -5.5994720458984375,
        -1.2182270288467407
      ],
      "type": "VEC3"
    },
    {
      "bufferView": 2,
      "byteOffset": 2439888,
      "componentType": 5126,
      "count": 65534,
      "type": "VEC3"
    },
    {
      "bufferView": 1,
      "byteOffset": 551160,
      "componentType": 5126,
      "count": 65534,
      "type": "VEC2"
    },
    {
      "bufferView": 0,
      "byteOffset": 1026588,
      "componentType": 5125,
      "count": 216825,
      "type": "SCALAR"
    },
    {
      "bufferView": 2,
      "byteOffset": 3226296,
      "componentType": 5126,
      "count": 65533,
      "max": [
        2.9996540546417236,
        -0.49602699279785156,
        2.4274380207061768
      ],
      "min": [
        -1.7766419649124146,
        -5.593810081481934,
        -1.3083330392837524
      ],
      "type": "VEC3"
    },
    {
      "bufferView": 2,
      "byteOffset": 4012692,
      "componentType": 5126,
      "count": 65533,
      "type": "VEC3"
    },
    {
      "bufferView": 1,
      "byteOffset": 1075432,
      "componentType": 5126,
      "count": 65533,
      "type": "VEC2"
    },
    {
      "bufferView": 0,
      "byteOffset": 1893888,
      "componentType": 5125,
      "count": 203448,
      "type": "SCALAR"
    },
    {
      "bufferView": 2,
      "byteOffset": 4799088,
      "componentType": 5126,
      "count": 65532,
      "max": [
        2.5243940353393555,
        -0.4951480031013489,
        2.4361090660095215
      ],
      "min": [
        -1.678339958190918,
        -1.6653950214385986,
        -1.0205670595169067
      ],
      "type": "VEC3"
    },
    {
      "bufferView": 2,
      "byteOffset": 5585472,
      "componentType": 5126,
      "count": 65532,
      "type": "VEC3"
    },
    {
      "bufferView": 1,
      "byteOffset": 1599696,
      "componentType": 5126,
      "count": 65532,
      "type": "VEC2"
    },
    {
      "bufferView": 0,
      "byteOffset": 2707680,
      "componentType": 5125,
      "count": 197532,
      "type": "SCALAR"
    },
    {
      "bufferView": 2,
      "byteOffset": 6371856,
      "componentType": 5126,
      "count": 65532,
      "max": [
        2.4507479667663574,
        -0.5172600150108337,
        2.4475700855255127
      ],
      "min": [
        -2.4117069244384766,
        -1.7481460571289063,
        -1.7668730020523071
      ],
      "type": "VEC3"
    },
    {
      "bufferView": 2,
      "byteOffset": 7158240,
      "componentType": 5126,
      "count": 65532,
      "type": "VEC3"
    },
    {
      "bufferView": 1,
      "byteOffset": 2123952,
      "componentType": 5126,
      "count": 65532,
      "type": "VEC2"
    },
    {
      "bufferView": 0,
      "byteOffset": 3497808,
      "componentType": 5125,
      "count": 197259,
      "type": "SCALAR"
    },
    {
      "bufferView": 2,
      "byteOffset": 7944624,
      "componentType": 5126,
      "count": 65532,
      "max": [
        3.1706531047821045,
        -0.4141010046005249,
        2.449716091156006
      ],
      "min": [
        -2.446402072906494,
        -2.489686965942383,
        -2.207529067993164
      ],
      "type": "VEC3"
    },
    {
      "bufferView": 2,
      "byteOffset": 8731008,
      "componentType": 5126,
      "count": 65532,
      "type": "VEC3"
    },
    {
      "bufferView": 1,
      "byteOffset": 2648208,
      "componentType": 5126,
      "count": 65532,
      "type": "VEC2"
    },
    {
      "bufferView": 0,
      "byteOffset": 4286844,
      "componentType": 5125,
      "count": 213924,
      "type": "SCALAR"
    },
    {
      "bufferView": 2,
      "byteOffset": 9517392,
      "componentType": 5126,
      "count": 65534,
      "max": [
        3.051461935043335,
        -0.49311399459838867,
        1.7063560485839844
      ],
      "min": [
        -2.0092720985412598,
        -2.496722936630249,
        -2.2676849365234375
      ],
      "type": "VEC3"
    },
    {
      "bufferView": 2,
      "byteOffset": 10303800,
      "componentType": 5126,
      "count": 65534,
      "type": "VEC3"
    },
    {
      "bufferView": 1,
      "byteOffset": 3172464,
      "componentType": 5126,
      "count": 65534,
      "type": "VEC2"
    },
    {
      "bufferView": 0,
      "byteOffset": 5142540,
      "componentType": 5125,
      "count": 233937,
      "type": "SCALAR"
    },
    {
      "bufferView": 2,
      "byteOffset": 11090208,
      "componentType": 5126,
      "count": 65532,
      "max": [
        3.16690993309021,
        -0.34329599142074585,
        -0.8974900245666504
      ],
      "min": [
        -2.4631359577178955,
        -2.4810760021209717,
        -2.3165619373321533
      ],
      "type": "VEC3"
    },
    {
      "bufferView": 2,
      "byteOffset": 11876592,
      "componentType": 5126,
      "count": 65532,
      "type": "VEC3"
    },
    {
      "bufferView": 1,
      "byteOffset": 3696736,
      "componentType": 5126,
      "count": 65532,
      "type": "VEC2"
    },
    {
      "bufferView": 0,
      "byteOffset": 6078288,
      "componentType": 5125,
      "count": 179157,
      "type": "SCALAR"
    },
    {
      "bufferView": 2,
      "byteOffset": 12662976,
      "componentType": 5126,
      "count": 65532,
      "max": [
        3.2059578895568848,
        -0.34901800751686096,
        2.363434076309204
      ],
      "min": [
        -2.459059000015259,
        -2.5085508823394775,
        -2.2498550415039063
      ],
      "type": "VEC3"
    },
    {
      "bufferView": 2,
      "byteOffset": 13449360,
      "componentType": 5126,
      "count": 65532,
      "type": "VEC3"
    },
    {
      "bufferView": 1,
      "byteOffset": 4220992,
      "componentType": 5126,
      "count": 65532,
      "type": "VEC2"
    },
    {
      "bufferView": 0,
      "byteOffset": 6794916,
      "componentType": 5125,
      "count": 188538,
      "type": "SCALAR"
    },
    {
      "bufferView": 2,
      "byteOffset": 14235744,
      "componentType": 5126,
      "count": 65532,
      "max": [
        3.2331299781799316,
        -0.4951480031013489,
        2.3953330516815186
      ],
      "min": [
        0.36994999647140503,
        -2.4778130054473877,
        0.8118789792060852
      ],
      "type": "VEC3"
    },
    {
      "bufferView": 2,
      "byteOffset": 15022128,
      "componentType": 5126,
      "count": 65532,
      "type": "VEC3"
    },
    {
      "bufferView": 1,
      "byteOffset": 4745248,
      "componentType": 5126,
      "count": 65532,
      "type": "VEC2"
    },
    {
      "bufferView": 0,
      "byteOffset": 7549068,
      "componentType": 5125,
      "count": 161355,
      "type": "SCALAR"
    },
    {
      "bufferView": 2,
      "byteOffset": 15808512,
      "componentType": 5126,
      "count": 22896,
      "max": [
        3.063401937484741,
        -0.4435789883136749,
        2.40145206451416
      ],
      "min": [
        -2.445880889892578,
        -1.8146480321884155,
        -1.2511930465698242
      ],
      "type": "VEC3"
    },
    {
      "bufferView": 2,
      "byteOffset": 16083264,
      "componentType": 5126,
      "count": 22896,
      "type": "VEC3"
    },
    {
      "bufferView": 1,
      "byteOffset": 5269504,
      "componentType": 5126,
      "count": 22896,
      "type": "VEC2"
    },
    {
      "bufferView": 0,
      "byteOffset": 8194488,
      "componentType": 5125,
      "count": 44481,
      "type": "SCALAR"
    },
    {
      "bufferView": 2,
      "byteOffset": 16358016,
      "componentType": 5126,
      "count": 381,
      "max": [
        3.2368290424346924,
        0.32610899209976196,
        2.45039701461792
      ],
      "min": [
        -2.4631359577178955,
        -5.227892875671387,
        -2.3171579837799072
      ],
      "type": "VEC3"
    },
    {
      "bufferView": 2,
      "byteOffset": 16362588,
      "componentType": 5126,
      "count": 381,
      "type": "VEC3"
    },
    {
      "bufferView": 1,
      "byteOffset": 5452672,
      "componentType": 5126,
      "count": 381,
      "type": "VEC2"
    },
    {
      "bufferView": 0,
      "byteOffset": 8372412,
      "componentType": 5125,
      "count": 513,
      "type": "SCALAR"
    }
  ],
  "asset": {
    "generator": "fab-model-conversion",
    "version": "2.0"
  },
  "bufferViews": [
    {
      "buffer": 0,
      "byteLength": 8374464,
      "target": 34963
    },
    {
      "buffer": 0,
      "byteLength": 5455720,
      "byteOffset": 8374464,
      "byteStride": 8,
      "target": 34962
    },
    {
      "buffer": 0,
      "byteLength": 16367160,
      "byteOffset": 13830184,
      "byteStride": 12,
      "target": 34962
    }
  ],
  "buffers": [
    {
      "byteLength": 30197344,
      "uri": "scene.bin"
    }
  ],
  "extensionsUsed": [
    "KHR_materials_unlit"
  ],
  "images": [
    {
      "uri": "textures/BCBrassFamily01_Model_4_u1_v1_baseColor.jpeg"
    }
  ],
  "materials": [
    {
      "doubleSided": true,
      "extensions": {
        "KHR_materials_unlit": {}
      },
      "name": "BCBrassFamily01_Model_4_u1_v1",
      "pbrMetallicRoughness": {
        "baseColorTexture": {
          "index": 0
        },
        "metallicFactor": 0.0
      }
    }
  ],
  "meshes": [
    {
      "name": "Object_0",
      "primitives": [
        {
          "attributes": {
            "NORMAL": 1,
            "POSITION": 0,
            "TEXCOORD_0": 2
          },
          "indices": 3,
          "material": 0,
          "mode": 4
        }
      ]
    },
    {
      "name": "Object_1",
      "primitives": [
        {
          "attributes": {
            "NORMAL": 5,
            "POSITION": 4,
            "TEXCOORD_0": 6
          },
          "indices": 7,
          "material": 0,
          "mode": 4
        }
      ]
    },
    {
      "name": "Object_2",
      "primitives": [
        {
          "attributes": {
            "NORMAL": 9,
            "POSITION": 8,
            "TEXCOORD_0": 10
          },
          "indices": 11,
          "material": 0,
          "mode": 4
        }
      ]
    },
    {
      "name": "Object_3",
      "primitives": [
        {
          "attributes": {
            "NORMAL": 13,
            "POSITION": 12,
            "TEXCOORD_0": 14
          },
          "indices": 15,
          "material": 0,
          "mode": 4
        }
      ]
    },
    {
      "name": "Object_4",
      "primitives": [
        {
          "attributes": {
            "NORMAL": 17,
            "POSITION": 16,
            "TEXCOORD_0": 18
          },
          "indices": 19,
          "material": 0,
          "mode": 4
        }
      ]
    },
    {
      "name": "Object_5",
      "primitives": [
        {
          "attributes": {
            "NORMAL": 21,
            "POSITION": 20,
            "TEXCOORD_0": 22
          },
          "indices": 23,
          "material": 0,
          "mode": 4
        }
      ]
    },
    {
      "name": "Object_6",
      "primitives": [
        {
          "attributes": {
            "NORMAL": 25,
            "POSITION": 24,
            "TEXCOORD_0": 26
          },
          "indices": 27,
          "material": 0,
          "mode": 4
        }
      ]
    },
    {
      "name": "Object_7",
      "primitives": [
        {
          "attributes": {
            "NORMAL": 29,
            "POSITION": 28,
            "TEXCOORD_0": 30
          },
          "indices": 31,
          "material": 0,
          "mode": 4
        }
      ]
    },
    {
      "name": "Object_8",
      "primitives": [
        {
          "attributes": {
            "NORMAL": 33,
            "POSITION": 32,
            "TEXCOORD_0": 34
          },
          "indices": 35,
          "material": 0,
          "mode": 4
        }
      ]
    },
    {
      "name": "Object_9",
      "primitives": [
        {
          "attributes": {
            "NORMAL": 37,
            "POSITION": 36,
            "TEXCOORD_0": 38
          },
          "indices": 39,
          "material": 0,
          "mode": 4
        }
      ]
    },
    {
      "name": "Object_10",
      "primitives": [
        {
          "attributes": {
            "NORMAL": 41,
            "POSITION": 40,
            "TEXCOORD_0": 42
          },
          "indices": 43,
          "material": 0,
          "mode": 4
        }
      ]
    },
    {
      "name": "Object_11",
      "primitives": [
        {
          "attributes": {
            "NORMAL": 45,
            "POSITION": 44,
            "TEXCOORD_0": 46
          },
          "indices": 47,
          "material": 0,
          "mode": 4
        }
      ]
    },
    {
      "name": "Object_12",
      "primitives": [
        {
          "attributes": {
            "NORMAL": 49,
            "POSITION": 48,
            "TEXCOORD_0": 50
          },
          "indices": 51,
          "material": 0,
          "mode": 4
        }
      ]
    }
  ],
  "nodes": [
    {
      "children": [
        1
      ],
      "matrix": [
        1.0,
        0.0,
        0.0,
        0.0,
        0.0,
        2.220446049250313e-16,
        -1.0,
        0.0,
        0.0,
        1.0,
        2.220446049250313e-16,
        0.0,
        0.0,
        0.0,
        0.0,
        1.0
      ],
      "name": "Sketchfab_model"
    },
    {
      "children": [
        2,
        3,
        4,
        5,
        6,
        7,
        8,
        9,
        10,
        11,
        12,
        13,
        14
      ],
      "name": "BCBrassFamily02.obj.cleaner.materialmerger.gles"
    },
    {
      "mesh": 0,
      "name": "Object_2"
    },
    {
      "mesh": 1,
      "name": "Object_3"
    },
    {
      "mesh": 2,
      "name": "Object_4"
    },
    {
      "mesh": 3,
      "name": "Object_5"
    },
    {
      "mesh": 4,
      "name": "Object_6"
    },
    {
      "mesh": 5,
      "name": "Object_7"
    },
    {
      "mesh": 6,
      "name": "Object_8"
    },
    {
      "mesh": 7,
      "name": "Object_9"
    },
    {
      "mesh": 8,
      "name": "Object_10"
    },
    {
      "mesh": 9,
      "name": "Object_11"
    },
    {
      "mesh": 10,
      "name": "Object_12"
    },
    {
      "mesh": 11,
      "name": "Object_13"
    },
    {
      "mesh": 12,
      "name": "Object_14"
    }
  ],
  "samplers": [
    {
      "magFilter": 9729,
      "minFilter": 9987,
      "wrapS": 10497,
      "wrapT": 10497
    }
  ],
  "scene": 0,
  "scenes": [
    {
      "name": "Sketchfab_Scene",
      "nodes": [
        0
      ]
    }
  ],
  "textures": [
    {
      "sampler": 0,
      "source": 0
    }
  ]
}
