{
  "accessors": [
    {
      "bufferView": 2,
      "componentType": 5126,
      "count": 65532,
      "max": [
        0.6545400023460388,
        0.9732199907302856,
        0.6568700075149536
      ],
      "min": [
        -0.8366299867630005,
        -1.297320008277893,
        -0.5601999759674072
      ],
      "type": "VEC3"
    },
    {
      "bufferView": 2,
      "byteOffset": 786384,
      "componentType": 5126,
      "count": 65532,
      "type": "VEC3"
    },
    {
      "bufferView": 1,
      "componentType": 5126,
      "count": 65532,
      "type": "VEC2"
    },
    {
      "bufferView": 0,
      "componentType": 5125,
      "count": 324231,
      "type": "SCALAR"
    },
    {
      "bufferView": 2,
      "byteOffset": 1572768,
      "componentType": 5126,
      "count": 8532,
      "max": [
        0.37334001064300537,
        0.4375,
        0.41854000091552734
      ],
      "min": [
        -0.4437299966812134,
        -0.5599600076675415,
        -0.011210000142455101
      ],
      "type": "VEC3"
    },
    {
      "bufferView": 2,
      "byteOffset": 1675152,
      "componentType": 5126,
      "count": 8532,
      "type": "VEC3"
    },
    {
      "bufferView": 1,
      "byteOffset": 524256,
      "componentType": 5126,
      "count": 8532,
      "type": "VEC2"
    },
    {
      "bufferView": 0,
      "byteOffset": 1296924,
      "componentType": 5125,
      "count": 42612,
      "type": "SCALAR"
    }
  ],
  "asset": {
    "generator": "fab-model-conversion",
    "version": "2.0"
  },
  "bufferViews": [
    {
      "buffer": 0,
      "byteLength": 1467372,
      "target": 34963
    },
    {
      "buffer": 0,
      "byteLength": 592512,
      "byteOffset": 1467372,
      "byteStride": 8,
      "target": 34962
    },
    {
      "buffer": 0,
      "byteLength": 1777536,
      "byteOffset": 2059884,
      "byteStride": 12,
      "target": 34962
    }
  ],
  "buffers": [
    {
      "byteLength": 3837420,
      "uri": "scene.bin"
    }
  ],
  "images": [
    {
      "uri": "textures/kater_baseColor.png"
    }
  ],
  "materials": [
    {
      "doubleSided": true,
      "name": "kater",
      "pbrMetallicRoughness": {
        "baseColorTexture": {
          "index": 0
        },
        "roughnessFactor": 0.7690776129188778
      }
    }
  ],
  "meshes": [
    {
      "name": "kater.opt_0",
      "primitives": [
        {
          "attributes": {
            "NORMAL": 1,
            "POSITION": 0,
            "TEXCOORD_0": 2
          },
          "indices": 3,
          "material": 0,
          "mode": 4
        }
      ]
    },
    {
      "name": "kater.opt_0",
      "primitives": [
        {
          "attributes": {
            "NORMAL": 5,
            "POSITION": 4,
            "TEXCOORD_0": 6
          },
          "indices": 7,
          "material": 0,
          "mode": 4
        }
      ]
    }
  ],
  "nodes": [
    {
      "children": [
        1
      ],
      "matrix": [
        1.0,
        0.0,
        0.0,
        0.0,
        0.0,
        2.220446049250313e-16,
        -1.0,
        0.0,
        0.0,
        1.0,
        2.220446049250313e-16,
        0.0,
        0.0,
        0.0,
        0.0,
        1.0
      ],
      "name": "Sketchfab_model"
    },
    {
      "children": [
        2
      ],
      "name": "Root"
    },
    {
      "children": [
        3,
        4
      ],
      "matrix": [
        -0.19629000000000005,
        -0.6848500000000002,
        -0.7017500000000001,
        0.0,
        0.9216500000000001,
        -0.37316000000000005,
        0.10638,
        0.0,
        -0.3347200000000001,
        -0.6258900000000002,
        0.70443,
        0.0,
        0.0,
        0.0,
        0.0,
        1.0
      ],
      "name": "kater.opt"
    },
    {
      "mesh": 0,
      "name": "kater.opt_0"
    },
    {
      "mesh": 1,
      "name": "kater.opt_0"
    }
  ],
  "samplers": [
    {
      "magFilter": 9729,
      "minFilter": 9987,
      "wrapS": 10497,
      "wrapT": 10497
    }
  ],
  "scene": 0,
  "scenes": [
    {
      "name": "Sketchfab_Scene",
      "nodes": [
        0
      ]
    }
  ],
  "textures": [
    {
      "sampler": 0,
      "source": 0
    }
  ]
}
